<svg xmlns="http://www.w3.org/2000/svg" viewBox="265 535 990 380" preserveAspectRatio="xMidYMid meet"><defs><clipPath id="d42a113b44"><path d="M 282 546.691406 L 1233 546.691406 L 1233 898.441406 L 282 898.441406 Z M 282 546.691406 " clip-rule="nonzero"/></clipPath><clipPath id="2eb2625c15"><path d="M 418.386719 546.691406 L 1159.816406 546.691406 C 1181.378906 546.691406 1201.839844 556.238281 1215.6875 572.769531 C 1229.535156 589.296875 1235.355469 611.113281 1231.578125 632.34375 L 1199.441406 813.054688 C 1190.625 862.609375 1147.542969 898.710938 1097.210938 898.710938 L 355.78125 898.710938 C 334.214844 898.710938 313.757812 889.160156 299.90625 872.628906 C 286.058594 856.101562 280.238281 834.289062 284.015625 813.054688 L 316.15625 632.34375 C 324.96875 582.789062 368.054688 546.691406 418.386719 546.691406 Z M 418.386719 546.691406 " clip-rule="nonzero"/></clipPath><clipPath id="fcb3f01dcc"><rect x="0" width="722" y="0" height="283"/></clipPath></defs><g clip-path="url(#d42a113b44)"><g clip-path="url(#2eb2625c15)"><path stroke-linecap="butt" transform="matrix(0.75, 0, 0, 0.75, 268.768546, 546.689693)" fill="none" stroke-linejoin="miter" d="M 199.490914 0.00228445 L 1188.063916 0.00228445 C 1216.813918 0.00228445 1244.095171 12.731452 1262.558714 34.773121 C 1281.022257 56.809581 1288.782674 85.898125 1283.746216 114.205419 L 1240.897254 355.153357 C 1229.142044 421.226279 1171.699331 469.3617 1104.58995 469.3617 L 116.016948 469.3617 C 87.261738 469.3617 59.985694 456.627324 41.516942 434.585655 C 23.053399 412.549195 15.292981 383.465859 20.32944 355.153357 L 63.183611 114.205419 C 74.933612 48.132497 132.381533 0.00228445 199.490914 0.00228445 Z M 199.490914 0.00228445 " stroke="#000000" stroke-width="80" stroke-opacity="1" stroke-miterlimit="4"/></g></g><g transform="matrix(1, 0, 0, 1, 382, 605)"><g clip-path="url(#fcb3f01dcc)"><g fill="#000000" fill-opacity="1"><g transform="translate(21.871102, 216.17028)"><g><path d="M 110.34375 0 L 108.9375 -25.046875 L 66.15625 -25.046875 L 54.609375 0 L -15.765625 0 L 86.984375 -197.03125 L 148.34375 -197.03125 L 181.5625 0 Z M 93.734375 -96.546875 L 80.78125 -65.578125 L 109.78125 -65.578125 L 106.40625 -96.546875 C 106.03125 -100.859375 105.703125 -104.890625 105.421875 -108.640625 C 105.140625 -112.398438 104.90625 -116.53125 104.71875 -121.03125 L 103.875 -121.03125 C 101.988281 -116.34375 100.296875 -112.164062 98.796875 -108.5 C 97.296875 -104.84375 95.609375 -100.859375 93.734375 -96.546875 Z M 93.734375 -96.546875 "/></g></g></g><g fill="#000000" fill-opacity="1"><g transform="translate(161.484478, 216.17028)"><g><path d="M 178.75 -197.03125 L 169.171875 -141.875 L 124.984375 -141.875 L 99.921875 0 L 35.1875 0 L 60.234375 -141.875 L 15.203125 -141.875 L 25.046875 -197.03125 Z M 178.75 -197.03125 "/></g></g></g><g fill="#000000" fill-opacity="1"><g transform="translate(288.712877, 216.17028)"><g><path d="M 0.28125 0 L 34.90625 -197.03125 L 98.515625 -197.03125 L 73.46875 -55.734375 L 137.640625 -55.734375 L 127.796875 0 Z M 0.28125 0 "/></g></g></g><g fill="#000000" fill-opacity="1"><g transform="translate(403.274542, 216.17028)"><g><path d="M 110.34375 0 L 108.9375 -25.046875 L 66.15625 -25.046875 L 54.609375 0 L -15.765625 0 L 86.984375 -197.03125 L 148.34375 -197.03125 L 181.5625 0 Z M 93.734375 -96.546875 L 80.78125 -65.578125 L 109.78125 -65.578125 L 106.40625 -96.546875 C 106.03125 -100.859375 105.703125 -104.890625 105.421875 -108.640625 C 105.140625 -112.398438 104.90625 -116.53125 104.71875 -121.03125 L 103.875 -121.03125 C 101.988281 -116.34375 100.296875 -112.164062 98.796875 -108.5 C 97.296875 -104.84375 95.609375 -100.859375 93.734375 -96.546875 Z M 93.734375 -96.546875 "/></g></g></g><g fill="#000000" fill-opacity="1"><g transform="translate(561.466257, 216.17028)"><g><path d="M 59.390625 3.9375 C 32.179688 3.9375 11.164062 -0.28125 -3.65625 -8.71875 L 6.1875 -64.171875 C 10.507812 -61.734375 15.671875 -59.53125 21.671875 -57.5625 C 27.679688 -55.59375 33.921875 -54 40.390625 -52.78125 C 46.867188 -51.5625 52.640625 -50.953125 57.703125 -50.953125 C 65.023438 -50.953125 70.328125 -51.703125 73.609375 -53.203125 C 76.890625 -54.703125 78.53125 -57.234375 78.53125 -60.796875 C 78.53125 -63.609375 76.84375 -66.28125 73.46875 -68.8125 C 70.09375 -71.351562 64.273438 -74.40625 56.015625 -77.96875 C 32.367188 -88.101562 20.546875 -105.273438 20.546875 -129.484375 C 20.546875 -131.734375 20.6875 -134.125 20.96875 -136.65625 C 21.25 -139.1875 21.578125 -141.675781 21.953125 -144.125 C 25.140625 -162.320312 33.347656 -176.347656 46.578125 -186.203125 C 59.816406 -196.054688 76.847656 -200.984375 97.671875 -200.984375 C 109.304688 -200.984375 120.003906 -200.226562 129.765625 -198.71875 C 139.523438 -197.21875 148.8125 -194.875 157.625 -191.6875 L 148.34375 -138.765625 C 141.207031 -141.398438 133.414062 -143.515625 124.96875 -145.109375 C 116.53125 -146.703125 109.023438 -147.5 102.453125 -147.5 C 90.441406 -147.5 84.4375 -144.210938 84.4375 -137.640625 C 84.4375 -135.015625 85.890625 -132.625 88.796875 -130.46875 C 91.710938 -128.3125 96.644531 -125.640625 103.59375 -122.453125 C 118.226562 -115.878906 129.015625 -108.320312 135.953125 -99.78125 C 142.898438 -91.25 146.375 -81.070312 146.375 -69.25 C 146.375 -67 146.234375 -64.742188 145.953125 -62.484375 C 145.671875 -60.234375 145.34375 -57.890625 144.96875 -55.453125 C 141.769531 -37.054688 132.570312 -22.554688 117.375 -11.953125 C 102.175781 -1.359375 82.847656 3.9375 59.390625 3.9375 Z M 59.390625 3.9375 "/></g></g></g></g></g></svg>