<svg viewBox="0 0 258.625 100" fill="none" stroke-linecap="square" stroke-miterlimit="10" xmlns="http://www.w3.org/2000/svg"><clipPath id="p.0"><path d="M0 0h258.625v100H0V0z"/></clipPath><g clip-path="url('#p.0')"><path fill="none" d="M0 0h258.625v100H0z"/><path fill="none" d="M62.191-7.013h243.37v95.339H62.191z"/><path fill="#a1a1a1" d="M79.894 62.147q-1 0-1.718-.718-.719-.72-.719-1.72V15.664q0-1.078.719-1.766.718-.687 1.718-.687 1.516 0 2.204 1.25l21.109 41.984h-2.125l20.734-41.984q.75-1.25 2.188-1.25 1.015 0 1.703.687.687.688.687 1.766V59.71q0 1-.687 1.719-.688.718-1.703.718-1.063 0-1.781-.718-.72-.72-.72-1.72V21.992l1.063.063-18.484 37.78q-.688 1.188-2.125 1.188-1.563 0-2.25-1.5l-18.61-37.218 1.25-.313V59.71q0 1-.718 1.719-.719.718-1.735.718zm75.263 0q-1.578 0-2.266-1.562l-18.609-43.547q-.687-1.75-.094-2.781.594-1.047 2.11-1.047 1.562 0 2.25 1.562l17.297 41.36h-1.391l17.234-41.235q.375-.937.938-1.312.562-.375 1.515-.375 1.438 0 1.938 1.11.5 1.093-.063 2.468l-18.671 43.797q-.375.875-.938 1.219-.562.343-1.25.343zm43.659.625q-4 0-7.422-1.156-3.406-1.156-5.922-3.281-2.5-2.14-3.813-4.953-.5-1.016-.03-1.86.468-.843 1.593-1.156.875-.25 1.719.188.843.437 1.281 1.312.953 1.828 2.766 3.266 1.812 1.437 4.312 2.219 2.516.78 5.516.78 3.328 0 5.89-1.093 2.578-1.094 4.047-3.187 1.469-2.11 1.469-5.11 0-3.828-2.828-6.578-2.813-2.766-8.828-3.516-7.328-.875-11.469-4.53-4.125-3.673-4.125-9 0-3.829 2.031-6.641 2.047-2.813 5.61-4.344 3.578-1.547 8.203-1.547 3.453 0 6.265 1.094 2.828 1.093 4.922 2.89 2.11 1.782 3.422 3.907.625 1.015.406 1.953-.218.937-1.093 1.437-.954.438-1.922.125-.969-.312-1.469-1.187-.938-1.453-2.36-2.735-1.406-1.28-3.406-2.03-2-.75-4.828-.813-4.937 0-7.953 2.109-3 2.094-3 6.094 0 2.125 1.125 3.922 1.125 1.78 3.719 3.062 2.61 1.281 7 1.922 7.828 1.125 11.61 4.797 3.796 3.656 3.796 9.547 0 3.375-1.219 6.015-1.218 2.625-3.453 4.422-2.219 1.781-5.203 2.719-2.969.937-6.36.937zm28.884-.625q-1.062 0-1.75-.687-.687-.688-.687-1.75V15.663q0-1.078.687-1.766.688-.687 1.75-.687h12.532q4.64 0 8.203 2.047 3.578 2.031 5.578 5.61 2.015 3.562 2.015 8.265 0 4.562-2.015 8.11-2 3.546-5.578 5.577-3.563 2.032-8.203 2.032h-10.079V59.71q0 1.062-.687 1.75-.688.687-1.766.687zm2.453-22h10.079q3.203 0 5.703-1.406 2.515-1.406 3.922-3.906 1.406-2.516 1.406-5.703 0-3.328-1.406-5.828-1.407-2.516-3.922-3.953-2.5-1.438-5.703-1.438h-10.079v22.234z"/><path fill="#a64d79" d="M32.819 9.389c16.594 0 30.047 13.452 30.047 30.047v30.047H32.82c-16.595 0-30.047-13.453-30.047-30.047 0-16.595 13.452-30.047 30.047-30.047z" fill-rule="evenodd"/><path stroke="#a1a1a1" stroke-width="4" stroke-linejoin="round" stroke-linecap="butt" d="M32.819 9.389c16.594 0 30.047 13.452 30.047 30.047v30.047H32.82c-16.595 0-30.047-13.453-30.047-30.047 0-16.595 13.452-30.047 30.047-30.047z"/><path fill="none" d="m62.866 69.483 191.465-.819"/><path stroke="#a1a1a1" stroke-width="4" stroke-linejoin="round" stroke-linecap="butt" d="m62.866 69.483 191.465-.819"/><path fill="none" d="M252.892 70.626V51.823"/><path stroke="#a1a1a1" stroke-width="4" stroke-linejoin="round" stroke-linecap="butt" d="M252.892 70.626V51.823"/><path fill="#f3f3f3" d="M25.087 39.436c0-4.392 3.461-7.953 7.732-7.953 2.05 0 4.017.838 5.467 2.33a8.07 8.07 0 0 1 2.265 5.623c0 4.392-3.462 7.952-7.732 7.952s-7.732-3.56-7.732-7.952z" fill-rule="evenodd"/><path stroke="#a1a1a1" stroke-width="4" stroke-linejoin="round" stroke-linecap="butt" d="M25.087 39.436c0-4.392 3.461-7.953 7.732-7.953 2.05 0 4.017.838 5.467 2.33a8.07 8.07 0 0 1 2.265 5.623c0 4.392-3.462 7.952-7.732 7.952s-7.732-3.56-7.732-7.952z"/><path fill="none" d="M66.736 73.021v12.504"/><path stroke="#a1a1a1" stroke-width="2" stroke-linejoin="round" stroke-linecap="butt" d="M66.736 73.021v12.504"/><path fill="none" d="m73.189 73.021.031 18.488"/><path stroke="#a1a1a1" stroke-width="2" stroke-linejoin="round" stroke-linecap="butt" d="m73.189 73.021.031 18.488"/><path fill="none" d="M79.736 73.021v12.504"/><path stroke="#a1a1a1" stroke-width="2" stroke-linejoin="round" stroke-linecap="butt" d="M79.736 73.021v12.504"/><path fill="none" d="M86.736 73.021v12.504"/><path stroke="#a1a1a1" stroke-width="2" stroke-linejoin="round" stroke-linecap="butt" d="M86.736 73.021v12.504"/><path fill="none" d="m93.189 73.021.031 18.488"/><path stroke="#a1a1a1" stroke-width="2" stroke-linejoin="round" stroke-linecap="butt" d="m93.189 73.021.031 18.488"/><path fill="none" d="M99.736 73.021v12.504"/><path stroke="#a1a1a1" stroke-width="2" stroke-linejoin="round" stroke-linecap="butt" d="M99.736 73.021v12.504"/><path fill="none" d="M106.736 73.021v12.504"/><path stroke="#a1a1a1" stroke-width="2" stroke-linejoin="round" stroke-linecap="butt" d="M106.736 73.021v12.504"/><path fill="none" d="m113.189 73.021.031 18.488"/><path stroke="#a1a1a1" stroke-width="2" stroke-linejoin="round" stroke-linecap="butt" d="m113.189 73.021.031 18.488"/><path fill="none" d="M119.736 73.021v12.504"/><path stroke="#a1a1a1" stroke-width="2" stroke-linejoin="round" stroke-linecap="butt" d="M119.736 73.021v12.504"/><path fill="none" d="M126.736 73.021v12.504"/><path stroke="#a1a1a1" stroke-width="2" stroke-linejoin="round" stroke-linecap="butt" d="M126.736 73.021v12.504"/><path fill="none" d="m133.189 73.021.031 18.488"/><path stroke="#a1a1a1" stroke-width="2" stroke-linejoin="round" stroke-linecap="butt" d="m133.189 73.021.031 18.488"/><path fill="none" d="M139.736 73.021v12.504"/><path stroke="#a1a1a1" stroke-width="2" stroke-linejoin="round" stroke-linecap="butt" d="M139.736 73.021v12.504"/><path fill="none" d="M146.736 73.021v12.504"/><path stroke="#a1a1a1" stroke-width="2" stroke-linejoin="round" stroke-linecap="butt" d="M146.736 73.021v12.504"/><path fill="none" d="m153.189 73.021.031 18.488"/><path stroke="#a1a1a1" stroke-width="2" stroke-linejoin="round" stroke-linecap="butt" d="m153.189 73.021.031 18.488"/><path fill="none" d="M159.736 73.021v12.504"/><path stroke="#a1a1a1" stroke-width="2" stroke-linejoin="round" stroke-linecap="butt" d="M159.736 73.021v12.504"/><path fill="none" d="M166.736 73.021v12.504"/><path stroke="#a1a1a1" stroke-width="2" stroke-linejoin="round" stroke-linecap="butt" d="M166.736 73.021v12.504"/><path fill="none" d="m173.189 73.021.031 18.488"/><path stroke="#a1a1a1" stroke-width="2" stroke-linejoin="round" stroke-linecap="butt" d="m173.189 73.021.031 18.488"/><path fill="none" d="M179.736 73.021v12.504"/><path stroke="#a1a1a1" stroke-width="2" stroke-linejoin="round" stroke-linecap="butt" d="M179.736 73.021v12.504"/><path fill="none" d="M186.736 73.021v12.504"/><path stroke="#a1a1a1" stroke-width="2" stroke-linejoin="round" stroke-linecap="butt" d="M186.736 73.021v12.504"/><path fill="none" d="m193.189 73.021.031 18.488"/><path stroke="#a1a1a1" stroke-width="2" stroke-linejoin="round" stroke-linecap="butt" d="m193.189 73.021.031 18.488"/><path fill="none" d="M199.736 73.021v12.504"/><path stroke="#a1a1a1" stroke-width="2" stroke-linejoin="round" stroke-linecap="butt" d="M199.736 73.021v12.504"/><path fill="none" d="M206.736 73.021v12.504"/><path stroke="#a1a1a1" stroke-width="2" stroke-linejoin="round" stroke-linecap="butt" d="M206.736 73.021v12.504"/><path fill="none" d="m213.189 73.021.031 18.488"/><path stroke="#a1a1a1" stroke-width="2" stroke-linejoin="round" stroke-linecap="butt" d="m213.189 73.021.031 18.488"/><path fill="none" d="M219.736 73.021v12.504"/><path stroke="#a1a1a1" stroke-width="2" stroke-linejoin="round" stroke-linecap="butt" d="M219.736 73.021v12.504"/><path fill="none" d="M226.736 73.021v12.504"/><path stroke="#a1a1a1" stroke-width="2" stroke-linejoin="round" stroke-linecap="butt" d="M226.736 73.021v12.504"/><path fill="none" d="m233.189 73.021.031 18.488"/><path stroke="#a1a1a1" stroke-width="2" stroke-linejoin="round" stroke-linecap="butt" d="m233.189 73.021.031 18.488"/><path fill="none" d="M239.736 73.021v12.504"/><path stroke="#a1a1a1" stroke-width="2" stroke-linejoin="round" stroke-linecap="butt" d="M239.736 73.021v12.504"/><path fill="none" d="M246.736 73.021v12.504"/><path stroke="#a1a1a1" stroke-width="2" stroke-linejoin="round" stroke-linecap="butt" d="M246.736 73.021v12.504"/><path fill="none" d="m253.189 73.021.031 18.488"/><path stroke="#a1a1a1" stroke-width="2" stroke-linejoin="round" stroke-linecap="butt" d="m253.189 73.021.031 18.488"/><path fill="none" d="M63.512 23.605c2.451 4.426 4.042 10.922 3.925 16.024.117-5.102-1.474-11.598-3.925-16.024z"/><path stroke="#a1a1a1" stroke-width="3" stroke-linejoin="round" stroke-linecap="butt" d="M63.512 23.605c2.451 4.426 4.042 10.922 3.925 16.024.117-5.102-1.474-11.598-3.925-16.024z"/></g></svg>